<?xml version="1.0" encoding="utf-8"?>
<svg viewBox="111.762 141.172 274.645 94.738" xmlns="http://www.w3.org/2000/svg">
  <path d="M 144.499 211.472 Q 138.829 211.472 134.293 210.055 Q 129.757 208.637 125.626 205.073 Q 124.573 204.182 124.006 203.048 Q 123.439 201.914 123.439 200.78 Q 123.439 198.917 124.775 197.5 Q 126.112 196.082 128.137 196.082 Q 129.676 196.082 130.891 197.054 Q 133.969 199.565 137.006 200.861 Q 140.044 202.157 144.499 202.157 Q 147.496 202.157 150.007 201.226 Q 152.518 200.294 154.057 198.715 Q 155.596 197.135 155.596 195.11 Q 155.596 192.68 154.138 190.979 Q 152.68 189.278 149.683 188.104 Q 146.686 186.929 142.069 186.281 Q 137.695 185.633 134.374 184.297 Q 131.053 182.96 128.825 180.895 Q 126.598 178.829 125.464 176.035 Q 124.33 173.24 124.33 169.757 Q 124.33 164.492 127.043 160.766 Q 129.757 157.04 134.374 155.096 Q 138.991 153.152 144.58 153.152 Q 149.845 153.152 154.34 154.732 Q 158.836 156.311 161.671 158.741 Q 164.02 160.604 164.02 163.034 Q 164.02 164.816 162.643 166.274 Q 161.266 167.732 159.403 167.732 Q 158.188 167.732 157.216 167.003 Q 155.92 165.869 153.733 164.857 Q 151.546 163.844 149.116 163.156 Q 146.686 162.467 144.58 162.467 Q 141.097 162.467 138.707 163.358 Q 136.318 164.249 135.103 165.788 Q 133.888 167.327 133.888 169.352 Q 133.888 171.782 135.305 173.362 Q 136.723 174.941 139.396 175.873 Q 142.069 176.804 145.795 177.533 Q 150.655 178.424 154.34 179.639 Q 158.026 180.854 160.456 182.758 Q 162.886 184.661 164.101 187.537 Q 165.316 190.412 165.316 194.543 Q 165.316 199.808 162.4 203.615 Q 159.484 207.422 154.745 209.447 Q 150.007 211.472 144.499 211.472 Z" style="fill: rgb(113, 97, 239); white-space: pre;"/>
  <path d="M 223.713 167.327 Q 225.576 167.327 226.953 168.745 Q 228.33 170.162 228.33 172.349 Q 228.33 172.916 228.249 173.362 Q 228.168 173.807 228.006 174.212 L 215.613 207.584 Q 215.046 209.204 213.588 210.055 Q 212.13 210.905 210.51 210.662 Q 207.756 210.5 206.379 207.584 L 198.36 184.499 L 200.466 184.58 L 192.933 207.584 Q 191.556 210.5 188.802 210.662 Q 187.263 210.905 185.765 210.055 Q 184.266 209.204 183.699 207.584 L 171.306 174.212 Q 170.982 173.321 170.982 172.349 Q 170.982 170.405 172.278 168.866 Q 173.574 167.327 175.842 167.327 Q 177.381 167.327 178.596 168.056 Q 179.811 168.785 180.297 170.405 L 190.098 196.973 L 188.073 196.811 L 195.444 176.804 Q 196.74 173.807 199.899 173.807 Q 201.681 173.807 202.613 174.577 Q 203.544 175.346 204.111 176.804 L 211.482 196.811 L 209.052 197.135 L 219.015 170.405 Q 219.987 167.327 223.713 167.327 Z" style="fill: rgb(113, 97, 239); white-space: pre;"/>
  <path d="M 271.821 166.517 Q 273.927 166.517 275.304 167.894 Q 276.681 169.271 276.681 171.458 L 276.681 205.721 Q 276.681 207.827 275.304 209.245 Q 273.927 210.662 271.821 210.662 Q 269.715 210.662 268.338 209.245 Q 266.961 207.827 266.961 205.721 L 266.961 201.752 L 268.743 202.481 Q 268.743 203.534 267.609 205.033 Q 266.475 206.531 264.531 207.989 Q 262.587 209.447 259.955 210.46 Q 257.322 211.472 254.244 211.472 Q 248.655 211.472 244.119 208.597 Q 239.583 205.721 236.951 200.659 Q 234.318 195.596 234.318 189.035 Q 234.318 182.393 236.951 177.331 Q 239.583 172.268 244.038 169.393 Q 248.493 166.517 253.92 166.517 Q 257.403 166.517 260.319 167.57 Q 263.235 168.623 265.382 170.243 Q 267.528 171.863 268.703 173.524 Q 269.877 175.184 269.877 176.318 L 266.961 177.371 L 266.961 171.458 Q 266.961 169.352 268.338 167.935 Q 269.715 166.517 271.821 166.517 Z M 255.459 202.562 Q 259.023 202.562 261.696 200.78 Q 264.369 198.998 265.868 195.92 Q 267.366 192.842 267.366 189.035 Q 267.366 185.147 265.868 182.069 Q 264.369 178.991 261.696 177.209 Q 259.023 175.427 255.459 175.427 Q 251.976 175.427 249.303 177.209 Q 246.63 178.991 245.132 182.069 Q 243.633 185.147 243.633 189.035 Q 243.633 192.842 245.132 195.92 Q 246.63 198.998 249.303 200.78 Q 251.976 202.562 255.459 202.562 Z" style="fill: rgb(113, 97, 239); white-space: pre;"/>
  <path d="M 309.649 166.517 Q 315.319 166.517 319.815 169.393 Q 324.31 172.268 326.943 177.29 Q 329.575 182.312 329.575 188.954 Q 329.575 195.596 326.943 200.659 Q 324.31 205.721 319.896 208.597 Q 315.481 211.472 309.973 211.472 Q 306.733 211.472 303.898 210.419 Q 301.063 209.366 298.917 207.746 Q 296.77 206.126 295.596 204.466 Q 294.421 202.805 294.421 201.671 L 296.932 200.618 L 296.932 221.921 Q 296.932 224.027 295.555 225.445 Q 294.178 226.862 292.072 226.862 Q 289.966 226.862 288.589 225.485 Q 287.212 224.108 287.212 221.921 L 287.212 172.268 Q 287.212 170.162 288.589 168.745 Q 289.966 167.327 292.072 167.327 Q 294.178 167.327 295.555 168.745 Q 296.932 170.162 296.932 172.268 L 296.932 176.237 L 295.555 175.508 Q 295.555 174.455 296.689 172.957 Q 297.823 171.458 299.767 169.96 Q 301.711 168.461 304.263 167.489 Q 306.814 166.517 309.649 166.517 Z M 308.434 175.427 Q 304.87 175.427 302.197 177.209 Q 299.524 178.991 298.026 182.029 Q 296.527 185.066 296.527 188.954 Q 296.527 192.761 298.026 195.88 Q 299.524 198.998 302.197 200.78 Q 304.87 202.562 308.434 202.562 Q 311.998 202.562 314.631 200.78 Q 317.263 198.998 318.762 195.88 Q 320.26 192.761 320.26 188.954 Q 320.26 185.066 318.762 182.029 Q 317.263 178.991 314.631 177.209 Q 311.998 175.427 308.434 175.427 Z" style="fill: rgb(113, 97, 239); white-space: pre;"/>
  <path d="M 338.567 168.137 L 357.764 168.137 Q 359.708 168.137 361.004 169.433 Q 362.3 170.729 362.3 172.673 Q 362.3 174.536 361.004 175.792 Q 359.708 177.047 357.764 177.047 L 338.567 177.047 Q 336.623 177.047 335.327 175.751 Q 334.031 174.455 334.031 172.511 Q 334.031 170.648 335.327 169.393 Q 336.623 168.137 338.567 168.137 Z M 347.234 158.012 Q 349.34 158.012 350.677 159.43 Q 352.013 160.847 352.013 162.953 L 352.013 198.998 Q 352.013 200.132 352.459 200.861 Q 352.904 201.59 353.674 201.914 Q 354.443 202.238 355.334 202.238 Q 356.306 202.238 357.116 201.874 Q 357.926 201.509 358.979 201.509 Q 360.113 201.509 361.045 202.562 Q 361.976 203.615 361.976 205.478 Q 361.976 207.746 359.506 209.204 Q 357.035 210.662 354.2 210.662 Q 352.499 210.662 350.434 210.379 Q 348.368 210.095 346.546 209.002 Q 344.723 207.908 343.508 205.64 Q 342.293 203.372 342.293 199.403 L 342.293 162.953 Q 342.293 160.847 343.711 159.43 Q 345.128 158.012 347.234 158.012 Z" style="fill: rgb(113, 97, 239); white-space: pre;"/>
</svg>