<svg xmlns="http://www.w3.org/2000/svg" data-name="Layer 1" viewBox="0 0 32 32" id="home-location"><path fill="#2b2e63" d="M16 3a7 7 0 1 0 7 7 7 7 0 0 0-7-7Zm0 13.09A6.06 6.06 0 1 1 22.06 10 6.06 6.06 0 0 1 16 16.09Z"></path><path fill="#2b2e63" d="M19.09 24.67C22.36 19.74 26 13.45 26 10a10 10 0 0 0-20 0c0 3.42 3.67 9.71 6.94 14.64-3.78.35-7.82 1.48-7.82 3.59C5.09 30.69 10.71 32 16 32s10.91-1.31 10.91-3.74c0-2.11-4.04-3.26-7.82-3.59ZM6.94 10a9.06 9.06 0 0 1 18.12 0c0 3.51-4.53 10.77-7.23 14.78-.78 1.22-1.44 2.12-1.83 2.66l-.16-.22c-.39-.56-1-1.39-1.65-2.39C11.47 20.8 6.94 13.54 6.94 10ZM16 31c-6.16 0-9.94-1.61-9.94-2.77s2.85-2.32 7.47-2.68c.18.27.35.53.52.77l.21.3.19.26c0 .09.11.17.16.25.59.84 1 1.35 1 1.36a.5.5 0 0 0 .78 0s.61-.8 1.61-2.14l.52-.76c4.62.36 7.47 1.66 7.47 2.68S22.16 31 16 31Z"></path><path fill="#f26e61" d="M16 1a9.06 9.06 0 0 0-9.06 9c0 3.51 4.53 10.77 7.23 14.78.68 1 1.26 1.83 1.65 2.39l.16.22c.39-.54 1.05-1.47 1.83-2.63 2.7-4 7.23-11.27 7.23-14.78A9.06 9.06 0 0 0 16 1Zm0 16.1a7 7 0 1 1 7-7 7 7 0 0 1-7 6.97Z"></path><path fill="#d7e9f2" d="M16 4a6.06 6.06 0 1 0 6.06 6A6.06 6.06 0 0 0 16 4Zm4.12 6.58h-.73v2.58a.49.49 0 0 1-.49.49h-2.13a.49.49 0 0 1-.49-.49V11.6h-.57v1.54a.48.48 0 0 1-.48.49H13.1a.49.49 0 0 1-.49-.49v-2.58h-.73a.49.49 0 0 1-.45-.3.5.5 0 0 1 .11-.53l4.12-4.12a.48.48 0 0 1 .68 0l1.85 1.85V7a.48.48 0 0 1 .49-.48.47.47 0 0 1 .48.48v1.43l1.3 1.3a.5.5 0 0 1 .11.53.49.49 0 0 1-.45.3Z"></path><path fill="#51bf9f" d="M25.94 28.26c0 1.16-3.78 2.74-9.94 2.74s-9.94-1.61-9.94-2.77 2.85-2.32 7.47-2.68c.18.27.35.53.52.77l.21.3.19.26c0 .09.11.17.16.25.59.84 1 1.35 1 1.36a.5.5 0 0 0 .78 0s.61-.8 1.61-2.14l.52-.76c4.57.35 7.42 1.65 7.42 2.67Z"></path><path fill="#e15e5a" d="M16 1a9.06 9.06 0 0 0-9.06 9c0 3.51 4.53 10.77 7.23 14.78.68 1 1.26 1.83 1.65 2.39l.16.22c.39-.54 1.05-1.47 1.83-2.63 2.7-4 7.23-11.27 7.23-14.78A9.06 9.06 0 0 0 16 1Zm1.41 23.55c-.56.84-1.05 1.55-1.41 2.06l-1.39-2C10 17.78 7.44 12.5 7.44 10a8.56 8.56 0 0 1 17.12 0c0 2.5-2.56 7.78-7.15 14.52Z"></path><path fill="#b7dae7" d="M16 4a6.06 6.06 0 1 0 6.06 6A6.06 6.06 0 0 0 16 4Zm0 11.61A5.56 5.56 0 1 1 21.56 10 5.56 5.56 0 0 1 16 15.59Z"></path><path fill="#3da580" d="M25.94 28.26c0 1.16-3.78 2.74-9.94 2.74s-9.94-1.61-9.94-2.77 2.85-2.32 7.47-2.68c.1.15.19.3.29.43-4.57.43-7.26 1.82-7.26 2.25s3 2.27 9.44 2.27 9.44-1.74 9.44-2.27-2.69-1.79-7.26-2.23l.29-.43c4.62.37 7.47 1.67 7.47 2.69Z"></path><path fill="#2b2e63" d="m20.46 9.73-1.3-1.3V7a.47.47 0 0 0-.48-.48.48.48 0 0 0-.49.48v.51l-1.85-1.9a.48.48 0 0 0-.68 0l-4.12 4.12a.5.5 0 0 0-.11.53.49.49 0 0 0 .45.3h.73v2.58a.49.49 0 0 0 .49.49h2.13a.48.48 0 0 0 .48-.49V11.6h.57v1.54a.49.49 0 0 0 .49.49h2.13a.49.49 0 0 0 .49-.49v-2.58h.73a.49.49 0 0 0 .45-.3.5.5 0 0 0-.11-.53Zm-1.56-.14a.49.49 0 0 0-.48.49v2.58h-1.17v-1.55a.47.47 0 0 0-.48-.48h-1.54a.48.48 0 0 0-.49.48v1.55h-1.16v-2.58a.49.49 0 0 0-.48-.49L16 6.64l2.95 3Z"></path><path fill="#ffdc7c" d="M19 9.59h-.1a.49.49 0 0 0-.48.49v2.58h-1.17v-1.55a.47.47 0 0 0-.48-.48h-1.54a.48.48 0 0 0-.49.48v1.55h-1.16v-2.58a.49.49 0 0 0-.48-.49L16 6.64Z"></path><path fill="#ecc25d" d="m16 6.64-2.95 3a.49.49 0 0 1 .48.49v2.58h1.16v-1.6a.48.48 0 0 1 .49-.48h1.54a.47.47 0 0 1 .48.48v1.55h1.17v-2.58a.49.49 0 0 1 .48-.49H19Zm2.17 3.44v2.33h-.67v-1.3a.73.73 0 0 0-.73-.73h-1.54a.74.74 0 0 0-.74.73v1.3h-.66v-2.33a.71.71 0 0 0-.31-.6L16 7l2.48 2.48a.71.71 0 0 0-.31.6Z"></path></svg>