<svg
   width="28"
   height="28"
   viewBox="0 0 28 28"
   fill="none"
   xmlns="http://www.w3.org/2000/svg"
   class="flex-grow-0 flex-shrink-0 w-7 h-7 relative"
   preserveAspectRatio="xMidYMid meet"
   >
   <mask
      id="mask0_1518_3296"
      style="mask-type:alpha"
      maskUnits="userSpaceOnUse"
      x="0"
      y="0"
      width="28"
      height="28"
      >
      <rect width="28" height="28" fill="#D9D9D9"></rect>
   </mask>
   <g mask="url(#mask0_1518_3296)">
      <path
         d="M4.0545 23.5661C3.5295 23.5661 3.07263 23.3717 2.6839 22.983C2.2947 22.5943 2.1001 22.1374 2.1001 21.6124V6.8536C2.1001 6.3286 2.2947 5.87174 2.6839 5.483C3.07263 5.09427 3.5295 4.8999 4.0545 4.8999H23.4795C24.0045 4.8999 24.4614 5.09427 24.8501 5.483C25.2393 5.87174 25.4339 6.3286 25.4339 6.8536V21.6124C25.4339 22.1374 25.2393 22.5943 24.8501 22.983C24.4614 23.3717 24.0045 23.5661 23.4795 23.5661H4.0545ZM13.767 14.9624L4.0545 8.6911V21.6124H23.4795V8.6911L13.767 14.9624ZM13.767 13.0374L23.4214 6.8536H4.142L13.767 13.0374ZM4.0545 8.6911V6.8536V21.6124V8.6911Z"
         fill="#807976"
         ></path>
   </g>
</svg>