 <svg
              width="28"
              height="28"
              viewBox="0 0 28 28"
              fill="none"
              xmlns="http://www.w3.org/2000/svg"
              class="flex-grow-0 flex-shrink-0 w-7 h-7 relative"
              preserveAspectRatio="xMidYMid meet"
            >
              <mask
                id="mask0_1532_3305"
                style="mask-type:alpha"
                maskUnits="userSpaceOnUse"
                x="0"
                y="0"
                width="28"
                height="28"
              >
                <rect width="28" height="28" fill="#D9D9D9"></rect>
              </mask>
              <g mask="url(#mask0_1532_3305)">
                <path
                  d="M10.927 21.2007L8.67419 20.5963L9.59236 17.1675C8.21799 16.6606 6.94066 15.9219 5.81586 14.9835L3.30402 17.4965L1.65319 15.8457L4.16619 13.3338C2.74761 11.6349 1.79446 9.59672 1.40002 7.41883L3.69602 7C4.58152 11.9023 8.87019 15.6217 14.028 15.6217C19.1847 15.6217 23.4745 11.9023 24.36 7L26.656 7.41767C26.2621 9.59585 25.3094 11.6344 23.891 13.3338L26.4029 15.8457L24.752 17.4965L22.2402 14.9835C21.1154 15.9219 19.8381 16.6606 18.4637 17.1675L19.3819 20.5975L17.129 21.2007L16.2097 17.7707C14.7658 18.0181 13.2903 18.0181 11.8464 17.7707L10.927 21.2007Z"
                  fill="#947FEF"
                ></path>
              </g>
            </svg>