<svg
   width="28"
   height="28"
   viewBox="0 0 28 28"
   fill="none"
   xmlns="http://www.w3.org/2000/svg"
   class="w-7 h-7 relative"
   preserveAspectRatio="xMidYMid meet"
   >
   <mask
      id="mask0_1532_3301"
      style="mask-type:alpha"
      maskUnits="userSpaceOnUse"
      x="0"
      y="0"
      width="28"
      height="28"
      >
      <rect width="28" height="28" fill="#D9D9D9"></rect>
   </mask>
   <g mask="url(#mask0_1532_3301)">
      <path
         d="M8.3999 7.23324C8.3999 5.61935 8.96885 4.24346 10.1067 3.10557C11.2438 1.96846 12.6193 1.3999 14.2332 1.3999C15.8471 1.3999 17.223 1.96846 18.3609 3.10557C19.498 4.24346 20.0666 5.61935 20.0666 7.23324V9.56657H21.2332C21.8749 9.56657 22.4244 9.79485 22.8817 10.2514C23.3383 10.7087 23.5666 11.2582 23.5666 11.8999V23.5666C23.5666 24.2082 23.3383 24.7577 22.8817 25.2151C22.4244 25.6716 21.8749 25.8999 21.2332 25.8999H7.23324C6.59157 25.8999 6.04246 25.6716 5.5859 25.2151C5.12857 24.7577 4.8999 24.2082 4.8999 23.5666V11.8999C4.8999 11.2582 5.12857 10.7087 5.5859 10.2514C6.04246 9.79485 6.59157 9.56657 7.23324 9.56657H17.7332V7.23324C17.7332 6.26101 17.393 5.43462 16.7124 4.75407C16.0318 4.07351 15.2055 3.73324 14.2332 3.73324C13.261 3.73324 12.4346 4.07351 11.7541 4.75407C11.0735 5.43462 10.7332 6.26101 10.7332 7.23324H8.3999ZM7.23324 23.5666H21.2332V11.8999H7.23324V23.5666ZM14.2332 15.3999C13.5916 15.3999 13.0425 15.6282 12.5859 16.0847C12.1286 16.5421 11.8999 17.0916 11.8999 17.7332C11.8999 18.3749 12.1286 18.9244 12.5859 19.3817C13.0425 19.8383 13.5916 20.0666 14.2332 20.0666C14.8749 20.0666 15.4244 19.8383 15.8817 19.3817C16.3383 18.9244 16.5666 18.3749 16.5666 17.7332C16.5666 17.0916 16.3383 16.5421 15.8817 16.0847C15.4244 15.6282 14.8749 15.3999 14.2332 15.3999Z"
         fill="#807976"
         ></path>
   </g>
</svg>